<?xml version="1.0" standalone="no"?>
<!DOCTYPE svg PUBLIC "-//W3C//DTD SVG 20010904//EN"
 "http://www.w3.org/TR/2001/REC-SVG-20010904/DTD/svg10.dtd">
<svg version="1.0" xmlns="http://www.w3.org/2000/svg"
 width="2249.000000pt" height="1706.000000pt" viewBox="0 0 2249.000000 1706.000000"
 preserveAspectRatio="xMidYMid meet">
<metadata>
Created by potrace 1.16, written by Peter Selinger 2001-2019
</metadata>
<g transform="translate(0.000000,1706.000000) scale(0.100000,-0.100000)"
fill="#000000" stroke="none">
<path d="M5665 17029 c-301 -11 -402 -22 -427 -46 -48 -49 -32 -114 92 -378
55 -115 132 -291 205 -461 24 -56 66 -151 93 -210 27 -60 82 -179 120 -264 39
-85 101 -218 137 -295 37 -77 82 -174 100 -215 80 -183 177 -394 233 -505 74
-147 232 -483 232 -493 0 -4 -26 -15 -58 -26 -31 -10 -140 -47 -242 -83 -260
-92 -458 -158 -735 -248 -132 -42 -314 -101 -405 -130 -91 -30 -176 -57 -190
-60 -14 -4 -68 -22 -120 -40 -52 -18 -212 -71 -355 -118 -335 -109 -963 -329
-1490 -522 -282 -103 -504 -181 -915 -324 -1315 -454 -1455 -504 -1704 -598
-116 -44 -211 -84 -213 -89 -3 -10 212 -226 357 -360 126 -115 393 -350 620
-544 118 -101 258 -222 310 -270 53 -47 163 -143 244 -215 82 -71 213 -186
291 -255 78 -69 209 -183 290 -255 82 -71 212 -186 290 -255 253 -224 655
-578 875 -769 79 -69 202 -176 272 -238 70 -62 161 -138 201 -170 39 -31 99
-82 132 -113 33 -30 83 -73 110 -96 l49 -41 -59 -69 c-143 -169 -179 -208
-326 -354 -86 -85 -223 -227 -305 -315 -402 -434 -1067 -1101 -1514 -1520
-469 -439 -469 -439 -436 -502 11 -22 36 -39 103 -68 48 -21 124 -54 168 -73
44 -19 94 -40 110 -48 36 -15 194 -79 324 -130 270 -105 811 -287 1231 -413
257 -77 698 -203 785 -224 11 -3 137 -36 280 -75 696 -188 1696 -411 2430
-542 127 -23 302 -54 390 -70 88 -15 225 -38 305 -50 80 -11 217 -32 305 -45
362 -55 888 -127 1010 -139 28 -2 136 -12 240 -21 105 -10 198 -20 208 -24 14
-5 -1 -14 -55 -33 -73 -27 -197 -77 -253 -102 -16 -8 -77 -34 -135 -59 -58
-25 -143 -62 -190 -82 -47 -20 -137 -60 -200 -87 -63 -28 -137 -61 -165 -73
-27 -12 -70 -31 -95 -42 -254 -113 -327 -147 -470 -220 -91 -46 -194 -100
-230 -120 -36 -21 -132 -73 -214 -118 -156 -84 -193 -116 -183 -157 9 -33 160
-275 375 -598 97 -146 176 -268 174 -272 -1 -5 2 -8 7 -8 5 0 33 -33 63 -72
30 -40 90 -120 133 -178 43 -58 96 -126 117 -151 l38 -47 -108 -81 c-59 -44
-134 -102 -167 -127 -93 -71 -255 -241 -309 -324 -57 -86 -95 -166 -126 -265
-44 -142 -21 -349 48 -427 13 -15 34 -18 145 -18 l130 0 -39 28 c-114 83 -135
125 -135 260 1 247 180 487 620 832 109 85 123 96 199 168 31 28 61 52 67 52
5 0 19 -15 30 -34 11 -18 39 -62 62 -96 24 -35 43 -66 43 -70 0 -11 -39 -20
-85 -20 -88 0 -335 -74 -335 -99 0 -6 1 -11 3 -11 1 0 36 6 77 14 59 12 166
15 485 14 571 -2 737 12 1014 83 326 84 387 113 605 282 118 91 147 120 133
133 -7 7 -124 -46 -170 -79 -16 -10 -29 -18 -31 -16 -1 2 -25 36 -52 74 -64
92 -137 189 -185 246 -22 26 -39 50 -39 54 0 4 19 4 43 1 23 -4 118 -13 211
-21 177 -16 333 -49 421 -89 74 -34 156 -106 188 -164 86 -159 97 -425 36
-869 -20 -148 -17 -183 18 -201 27 -14 67 1 81 30 29 62 84 305 108 483 l7 50
13 -55 c11 -44 19 -150 24 -285 0 -5 8 -1 18 8 15 16 17 40 17 206 l0 189 45
-26 c157 -90 244 -168 310 -277 62 -103 85 -153 116 -258 45 -153 49 -271 18
-490 l-7 -47 85 0 86 0 13 82 c22 136 17 267 -15 383 -31 110 -53 158 -134
288 -106 173 -235 292 -455 422 -73 43 -133 79 -135 80 -1 1 -9 42 -16 91 -44
292 -166 442 -431 527 -44 14 -93 28 -110 31 -71 13 -411 36 -537 36 l-136 0
-51 57 c-28 32 -51 61 -51 65 0 4 30 24 68 45 287 160 674 518 858 794 124
185 179 342 179 509 0 152 -30 221 -122 280 l-43 28 33 6 c17 4 81 16 140 26
l108 18 92 -25 c468 -128 1007 -202 1594 -219 120 -4 219 -8 220 -9 2 -1 -40
-28 -93 -61 -210 -130 -371 -324 -504 -609 -52 -112 -77 -184 -114 -329 -48
-185 -61 -302 -60 -546 0 -201 3 -241 27 -372 26 -142 71 -327 87 -358 4 -8
18 -44 30 -80 27 -77 158 -342 208 -420 150 -236 413 -534 593 -673 l87 -67
93 0 94 1 -39 22 c-156 89 -372 284 -533 480 -172 210 -328 525 -403 817 -87
340 -103 763 -39 1072 26 126 99 349 146 443 160 318 369 503 699 618 356 124
808 128 1114 11 422 -162 755 -457 1006 -892 144 -249 213 -391 239 -492 138
-546 127 -854 -52 -1445 -25 -82 -56 -188 -70 -235 -13 -47 -51 -140 -83 -207
-33 -67 -61 -133 -64 -147 -3 -14 -7 -30 -11 -36 -4 -6 11 -10 38 -10 l44 0
54 115 54 115 165 69 c91 38 242 97 335 131 94 35 192 71 219 81 l49 18 111
-88 c275 -219 393 -277 635 -312 109 -15 196 -7 301 29 141 50 161 62 410 252
332 254 422 302 690 364 124 29 257 50 435 71 157 19 397 59 480 80 272 69
443 289 501 645 17 97 14 334 -5 442 l-8 47 121 42 c322 112 665 292 971 510
98 69 556 515 719 699 419 475 736 979 882 1405 72 209 104 384 104 571 0 284
-80 487 -277 700 -86 94 -279 230 -418 295 l-81 38 -42 83 c-94 189 -222 276
-537 365 -147 41 -216 70 -354 148 -100 56 -171 115 -333 275 -141 141 -260
215 -421 264 l-72 22 4 40 c5 56 83 431 130 624 60 245 86 337 151 530 62 185
76 223 134 363 20 48 52 126 72 175 129 310 150 386 134 483 -11 62 -15 71
-65 118 -76 72 -128 93 -248 99 -103 5 -173 -5 -262 -38 -98 -36 -237 -101
-293 -137 -31 -21 -68 -43 -81 -50 -13 -7 -73 -53 -135 -102 -283 -227 -500
-512 -739 -971 -168 -324 -270 -613 -400 -1140 -47 -190 -88 -356 -91 -370 -4
-16 -27 -40 -62 -65 -62 -44 -153 -138 -188 -194 -60 -95 -200 -495 -261 -742
-16 -65 -19 -69 -103 -141 -119 -102 -327 -269 -442 -355 -261 -197 -376 -318
-460 -488 -59 -119 -121 -303 -146 -435 -21 -113 -22 -369 -2 -521 l14 -97
-71 -22 c-194 -60 -315 -225 -384 -522 -10 -44 -30 -247 -31 -310 0 -27 -2
-28 -47 -28 -91 0 -231 -34 -343 -84 -41 -19 -92 -41 -112 -49 -47 -21 -116
-107 -167 -211 l-39 -79 -48 77 c-252 400 -630 735 -1011 896 -29 12 -51 26
-48 30 3 4 42 18 87 30 178 47 411 123 579 188 81 32 418 199 478 236 205 130
357 239 476 341 33 28 87 72 120 97 61 46 320 304 435 433 184 205 401 531
523 785 218 454 293 732 303 1130 5 181 7 200 32 260 14 36 30 67 34 70 41 30
196 517 247 775 43 219 46 258 46 670 -1 618 -43 961 -161 1318 l-36 109 38
31 c259 214 535 571 712 922 160 319 346 876 431 1290 48 239 99 654 87 717
-9 51 -43 75 -119 83 -127 14 -700 -33 -967 -79 -293 -51 -397 -72 -580 -121
-293 -77 -561 -172 -812 -289 l-78 -35 -25 49 c-14 27 -25 56 -25 63 0 16
-106 225 -188 372 -56 101 -232 379 -310 490 -24 33 -59 85 -79 115 -39 60
-82 116 -188 248 -39 48 -81 101 -93 117 -79 104 -411 413 -558 518 -148 107
-269 187 -283 187 -9 0 -22 -5 -29 -12 -14 -14 -16 -60 -3 -73 15 -16 80 -233
102 -339 23 -113 41 -338 30 -368 -7 -19 -12 -16 -52 31 -72 85 -411 384 -591
522 -368 284 -717 514 -1098 726 -69 39 -147 83 -175 98 -208 117 -350 189
-660 335 -351 165 -1447 548 -2075 723 -125 35 -380 97 -560 136 -52 11 -135
29 -185 40 -223 48 -984 185 -1233 221 -75 10 -222 29 -327 40 -104 11 -228
24 -275 30 -339 38 -1120 57 -1635 39z m1330 -339 c356 -10 710 -27 1060 -51
297 -20 1026 -120 1343 -184 195 -39 556 -121 753 -170 191 -48 814 -227 934
-268 387 -133 786 -292 1115 -442 663 -303 1413 -787 1931 -1246 467 -414 590
-536 858 -849 87 -102 90 -105 96 -98 3 3 -5 18 -18 34 -13 16 -26 35 -28 41
-6 18 -90 128 -189 247 -172 206 -175 211 -184 321 -16 194 -39 288 -140 584
-20 58 -36 107 -36 109 0 2 41 -33 91 -79 51 -46 133 -119 183 -163 198 -170
510 -488 621 -632 22 -28 68 -86 103 -129 69 -85 192 -266 299 -442 149 -244
199 -322 260 -404 53 -72 93 -143 93 -163 0 -3 -30 -22 -67 -42 -161 -90 -403
-261 -403 -286 0 -17 22 -6 87 41 77 56 444 247 606 315 231 98 592 205 857
255 435 81 686 106 1057 106 160 0 294 -2 296 -5 9 -9 -50 -464 -93 -720 -46
-276 -73 -394 -131 -589 -23 -75 -45 -149 -49 -166 -47 -175 -240 -578 -368
-768 -94 -141 -155 -217 -287 -357 -141 -151 -181 -190 -199 -190 -9 0 -21 21
-31 53 -10 28 -33 87 -51 130 -19 43 -34 81 -34 85 0 4 28 23 63 41 42 23 100
72 183 155 243 243 412 520 551 901 13 37 52 166 87 290 8 28 22 93 31 145 10
52 31 161 47 241 16 81 28 162 26 180 -4 49 -37 49 -155 -1 -300 -128 -630
-337 -947 -597 -142 -117 -406 -369 -406 -388 0 -10 116 -270 139 -312 14 -25
110 -263 165 -412 26 -69 74 -189 106 -267 33 -78 67 -173 75 -210 9 -38 32
-118 51 -177 19 -59 41 -151 50 -205 8 -53 21 -135 29 -182 16 -94 38 -284 57
-490 17 -184 17 -838 0 -1000 -19 -181 -68 -468 -101 -595 -64 -244 -76 -285
-83 -285 -5 0 -8 9 -8 20 0 37 -38 159 -70 224 -18 36 -56 93 -85 129 -58 71
-175 163 -217 173 -15 3 -30 9 -32 13 -6 9 92 210 151 309 91 153 188 467 238
772 41 251 32 419 -32 615 -80 246 -215 452 -367 559 -269 191 -588 238 -961
141 -242 -62 -509 -165 -735 -282 -497 -258 -585 -296 -717 -309 -122 -11
-252 53 -356 176 -65 78 -89 117 -242 395 -236 427 -349 611 -548 895 -195
278 -417 527 -622 700 -44 37 -111 95 -150 129 -38 34 -123 93 -187 131 -158
96 -302 164 -520 246 -63 23 -265 73 -392 96 -104 20 -155 23 -361 22 -222 0
-250 -2 -369 -28 -394 -83 -676 -256 -930 -573 -111 -139 -197 -280 -282 -463
-114 -248 -161 -407 -220 -750 -33 -192 -36 -220 -37 -440 -2 -245 4 -303 49
-527 56 -282 186 -587 330 -774 100 -131 236 -257 349 -326 11 -7 45 -27 75
-45 l55 -33 -55 -2 c-311 -13 -669 -68 -869 -135 -94 -31 -242 -101 -324 -154
-41 -26 -122 -98 -187 -163 -159 -160 -246 -295 -363 -561 -62 -141 -121 -407
-138 -617 -17 -202 5 -464 57 -683 20 -85 120 -390 151 -460 75 -167 93 -205
151 -310 238 -427 604 -818 1032 -1104 188 -125 338 -212 570 -327 l174 -87
-59 -16 c-33 -9 -191 -59 -352 -112 l-292 -97 -128 11 c-151 13 -326 36 -438
58 -241 46 -621 128 -1040 225 -512 118 -1787 440 -2300 581 -855 233 -1031
282 -1194 330 -97 28 -282 81 -411 118 -414 120 -499 147 -1100 353 -361 124
-752 265 -762 275 -6 6 56 84 207 258 33 38 62 71 65 74 17 15 208 250 276
340 99 129 232 302 327 423 162 208 526 701 680 923 46 67 315 475 389 591 21
32 47 70 59 85 l22 27 -87 100 c-89 102 -1842 1890 -2310 2356 -259 258 -477
466 -779 745 -125 114 -154 146 -140 151 10 3 173 58 363 122 417 139 1078
377 1530 550 328 126 523 204 910 365 314 131 402 166 800 322 179 69 361 145
845 351 342 144 989 462 1297 635 43 24 80 44 84 44 3 0 18 8 32 19 15 10 106
51 202 90 96 40 179 77 185 82 16 16 -17 10 -110 -20 -219 -72 -521 -159 -526
-153 -4 4 -66 155 -139 336 -126 314 -207 522 -395 1021 -14 39 -33 90 -42
115 -19 56 -102 256 -153 370 -22 47 -52 119 -68 160 -49 123 -97 238 -151
363 -29 65 -49 122 -46 127 8 13 987 13 1440 0z m11190 -4360 c-32 -144 -126
-424 -205 -614 -34 -82 -105 -225 -159 -318 -93 -164 -99 -172 -226 -296 -142
-139 -241 -204 -342 -225 -64 -14 -72 -8 -99 77 -9 28 -58 130 -109 226 -98
184 -165 324 -165 345 0 12 187 186 320 297 156 131 489 362 651 451 137 75
350 178 357 172 2 -1 -9 -53 -23 -115z m-6630 -25 c272 -59 623 -207 835 -354
191 -131 407 -330 557 -511 254 -308 507 -698 778 -1200 133 -246 215 -370
301 -457 45 -45 103 -92 129 -105 l47 -24 4 -160 c3 -87 9 -215 15 -283 6 -68
9 -124 7 -126 -2 -1 -95 -5 -208 -8 -390 -12 -576 -38 -1200 -166 -107 -22
-253 -54 -325 -71 -159 -37 -159 -37 -144 -8 51 95 73 367 72 898 -1 234 -6
502 -12 597 -12 210 -50 415 -99 536 -31 78 -40 93 -86 127 -92 68 -111 75
-216 75 -129 -1 -188 -25 -281 -113 -148 -139 -209 -354 -239 -839 -21 -355
-3 -708 54 -1083 22 -139 66 -282 101 -320 14 -16 12 -18 -37 -28 -29 -6 -89
-13 -133 -17 -44 -3 -111 -10 -150 -15 -68 -10 -533 -33 -926 -46 -186 -7
-197 -6 -225 13 -16 11 -60 40 -97 63 -119 75 -257 218 -392 406 -148 206
-267 544 -294 834 -12 128 -13 464 -1 528 5 31 19 116 31 187 28 174 74 353
148 565 84 243 226 460 430 658 163 158 305 250 543 351 139 59 229 80 433 97
99 8 214 19 255 23 98 12 190 5 325 -24z m535 -1435 c50 -25 106 -98 125 -163
8 -28 15 -87 15 -131 1 -45 5 -126 11 -181 9 -96 26 -1019 22 -1272 -2 -154
-48 -353 -82 -353 -5 0 -66 -11 -137 -24 -71 -14 -160 -27 -198 -31 -38 -3
-72 -8 -76 -10 -9 -5 -50 46 -72 90 -23 45 -55 169 -75 291 -23 138 -22 465 1
709 8 94 20 244 26 335 12 196 31 318 71 458 49 171 89 231 194 287 58 31 108
29 175 -5z m4255 -739 c116 -28 290 -114 376 -185 88 -72 165 -173 223 -289
81 -165 109 -318 109 -597 -1 -375 -56 -644 -189 -919 -41 -85 -76 -156 -77
-158 -4 -4 -231 23 -309 37 -90 16 -150 37 -253 87 -91 46 -155 88 -155 102 0
4 19 13 43 20 68 20 314 145 417 212 150 97 304 259 367 384 12 22 33 78 48
125 23 71 28 103 28 190 0 92 -4 117 -32 200 -37 108 -87 183 -156 230 -136
94 -262 102 -466 31 -153 -52 -361 -191 -755 -505 -84 -67 -175 -138 -204
-159 l-52 -38 -64 31 c-34 18 -82 38 -106 45 l-43 12 2 309 c1 170 5 364 8
432 l7 123 37 23 c99 63 254 147 302 165 117 43 355 99 489 115 95 11 318 -2
405 -23z m3930 -332 c85 -11 133 -36 161 -83 35 -60 -3 -197 -161 -566 -20
-47 -45 -107 -55 -135 -10 -27 -30 -79 -45 -115 -100 -246 -250 -692 -299
-892 -36 -142 -96 -443 -96 -477 0 -17 -15 -18 -187 -18 -166 0 -210 -4 -368
-31 -171 -30 -376 -88 -478 -136 -30 -15 -40 -16 -52 -6 -34 28 -11 180 71
485 157 579 315 937 583 1315 100 142 188 242 313 356 115 105 390 274 488
300 25 7 46 13 47 13 1 1 36 -4 78 -10z m-5324 -191 c5 -73 6 -236 2 -361 l-6
-229 -31 6 c-98 18 -283 36 -408 41 -204 9 -188 2 -188 88 0 81 16 337 25 408
l7 46 61 1 c93 0 399 77 485 121 21 11 39 17 41 15 2 -2 8 -63 12 -136z m1621
-139 c142 -30 205 -104 228 -271 26 -185 -74 -394 -261 -544 -96 -76 -144
-106 -264 -167 -210 -106 -266 -127 -590 -216 -118 -33 -319 -54 -462 -48
-142 5 -215 23 -258 63 -24 22 -27 30 -21 67 11 70 69 179 122 231 46 45 214
170 334 249 30 20 98 67 151 104 257 183 531 373 589 410 193 121 298 150 432
122z m-1972 -579 c206 -16 377 -44 493 -80 37 -11 67 -22 67 -23 0 -2 -53 -57
-118 -123 -96 -96 -126 -133 -156 -194 -64 -130 -50 -219 43 -281 107 -70 225
-92 451 -84 238 9 429 31 547 65 60 17 63 17 79 -1 27 -30 156 -116 233 -154
93 -47 186 -79 309 -105 216 -47 330 -105 437 -222 106 -117 142 -226 151
-458 5 -111 2 -167 -11 -240 -59 -340 -230 -794 -418 -1110 -77 -129 -259
-391 -363 -520 -132 -166 -410 -434 -700 -676 -63 -52 -324 -235 -434 -304
-181 -113 -477 -270 -630 -334 -395 -163 -855 -284 -1265 -332 -183 -22 -774
-25 -1015 -6 -680 54 -1049 123 -1513 282 -827 283 -1478 716 -1886 1255 -228
301 -398 648 -491 1000 -85 322 -98 656 -39 952 53 266 212 621 355 792 173
207 297 303 487 379 255 102 485 135 1048 152 189 5 434 14 544 20 110 6 322
15 470 21 149 6 306 13 350 15 97 4 431 39 575 60 362 52 428 64 680 115 509
104 638 123 1045 153 80 6 538 -4 675 -14z m5187 -1541 c173 -24 316 -78 429
-162 32 -25 111 -92 175 -149 194 -173 389 -289 577 -342 239 -68 378 -139
467 -237 31 -35 82 -130 99 -186 7 -23 60 -73 78 -73 13 0 266 -161 343 -219
190 -143 295 -297 335 -491 46 -222 7 -533 -102 -805 -142 -354 -416 -792
-719 -1150 -110 -130 -250 -277 -305 -320 -198 -153 -273 -208 -440 -323 -482
-331 -829 -497 -1269 -606 -295 -73 -487 -95 -686 -76 -220 20 -332 44 -392
81 -77 49 -200 153 -359 307 -78 75 -149 144 -158 152 -8 8 -50 41 -92 74 -42
32 -78 61 -80 65 -4 9 -187 107 -333 179 -100 50 -119 63 -210 156 -177 180
-258 315 -344 571 -71 212 -95 349 -95 555 0 247 30 386 130 599 92 197 182
303 391 463 52 40 139 107 193 148 141 108 345 278 421 351 36 35 108 114 159
174 172 202 315 328 445 391 76 38 127 46 198 33 120 -21 165 -60 204 -173 26
-75 28 -92 27 -236 0 -183 -17 -262 -91 -428 -122 -274 -329 -514 -663 -772
-58 -44 -148 -114 -200 -155 -114 -89 -147 -111 -250 -171 -79 -45 -90 -57
-70 -69 20 -13 333 103 463 171 38 20 70 34 72 32 13 -15 136 -202 153 -233
47 -85 92 -254 107 -399 9 -88 9 -337 0 -410 -6 -47 -5 -57 10 -62 25 -10 32
2 73 127 64 188 81 320 57 443 -28 151 -82 265 -231 486 -41 62 -72 116 -67
120 4 4 46 38 93 75 47 38 87 71 90 74 3 3 45 44 92 90 l86 84 77 -33 c59 -26
74 -37 69 -49 -28 -63 -7 -144 65 -253 83 -127 235 -243 381 -291 277 -90 268
-88 415 -94 106 -4 164 -1 240 12 144 25 134 27 155 -27 23 -61 108 -167 169
-212 83 -61 204 -111 381 -157 162 -43 257 -48 351 -19 205 61 282 101 375
196 159 160 255 300 322 467 9 20 19 27 38 27 30 0 104 19 117 31 16 13 -3 47
-29 53 -41 11 -201 -22 -265 -54 -77 -40 -242 -196 -216 -206 10 -4 25 0 35 8
26 22 222 131 227 126 13 -13 -256 -348 -331 -410 -37 -32 -162 -84 -239 -101
-83 -17 -316 28 -510 98 -142 51 -224 115 -264 206 -18 40 -20 60 -15 150 12
236 74 392 248 624 25 33 53 71 63 85 35 50 150 196 248 314 140 169 266 328
272 343 7 17 -15 43 -36 43 -10 0 -59 -52 -111 -117 -226 -281 -304 -373 -444
-517 -160 -167 -291 -354 -342 -494 -26 -69 -58 -207 -70 -299 l-6 -52 -76
-17 c-57 -13 -103 -15 -196 -11 -112 5 -129 9 -226 47 -144 57 -199 84 -315
154 -116 71 -170 123 -226 216 -32 54 -40 78 -41 116 -1 85 12 179 47 364 39
197 67 358 69 385 3 53 37 187 78 312 66 204 78 212 553 368 318 104 448 164
408 188 -8 5 -110 -11 -208 -31 -80 -17 -338 -105 -495 -170 -165 -67 -225
-112 -262 -192 l-23 -49 -16 87 c-31 160 -92 277 -174 333 -115 79 -300 105
-419 59 -118 -45 -279 -156 -393 -271 -35 -34 -63 -58 -63 -53 0 12 59 176
108 302 48 122 81 167 177 247 137 113 457 284 663 356 92 32 320 90 410 104
107 16 334 19 439 4z m-975 -2064 l-29 -110 -39 3 c-69 6 -69 10 11 117 41 55
75 104 76 110 0 7 2 7 5 0 2 -5 -9 -59 -24 -120z m-2143 -1465 c75 -228 221
-465 397 -645 85 -87 126 -115 280 -194 265 -134 394 -243 638 -538 193 -232
418 -380 681 -447 112 -28 193 -36 381 -37 207 0 203 0 282 -73 78 -72 98
-152 82 -329 -8 -90 -14 -116 -44 -175 -53 -106 -146 -178 -331 -257 -60 -26
-133 -58 -160 -71 -34 -16 -91 -28 -180 -39 -295 -35 -509 -81 -689 -146 -131
-47 -318 -166 -521 -329 -266 -215 -397 -267 -607 -242 -134 17 -218 43 -355
113 -367 187 -584 411 -780 806 l-75 152 13 150 c10 123 10 181 0 312 -19 241
-39 345 -112 566 -39 118 -40 125 -29 180 7 32 24 90 37 128 23 62 42 96 136
233 15 22 52 47 114 79 93 46 93 46 200 47 l107 1 13 -87 c19 -132 56 -267
150 -548 94 -282 127 -364 146 -357 18 6 15 25 -38 277 -8 36 -21 110 -30 165
-9 55 -20 125 -25 155 -66 387 -73 673 -19 870 26 94 101 256 137 294 31 32
143 107 155 103 5 -1 25 -54 46 -117z m-6065 -285 c37 -37 32 -189 -10 -313
-74 -222 -221 -398 -807 -972 l-148 -145 -192 -7 c-225 -8 -292 -16 -292 -38
0 -13 24 -15 170 -12 94 2 198 0 232 -3 l62 -6 52 -92 c28 -51 70 -128 93
-172 47 -90 103 -177 200 -310 36 -49 66 -93 66 -96 0 -9 -221 -66 -410 -105
-311 -65 -705 -122 -855 -124 -151 -2 -141 -5 -171 46 -15 25 -40 80 -56 122
-16 42 -35 91 -42 107 -25 55 -75 219 -98 315 -29 128 -32 329 -4 410 28 84
83 170 104 164 14 -5 14 -4 2 4 -16 12 -17 11 84 122 204 224 760 641 1176
883 252 146 527 232 752 236 56 1 81 -3 92 -14z m-954 -101 c-238 -128 -514
-318 -885 -612 -156 -124 -367 -336 -432 -434 -156 -235 -172 -477 -57 -820
24 -73 41 -135 36 -138 -17 -16 -104 -70 -110 -70 -4 0 -27 -13 -51 -29 l-44
-30 -74 97 c-147 193 -211 279 -304 412 -153 218 -299 435 -393 585 -82 130
-87 140 -69 152 26 20 202 108 318 160 55 25 138 63 185 85 219 103 421 182
635 247 33 10 107 37 165 59 192 73 1112 376 1155 381 6 0 -28 -20 -75 -45z
m6177 -2534 c51 -73 67 -94 167 -220 26 -34 47 -63 45 -64 -27 -23 -486 -245
-625 -303 -7 -2 12 51 41 119 114 266 157 424 202 727 4 34 6 32 62 -75 31
-60 80 -143 108 -184z"/>
<path d="M9448 16126 c-63 -17 -114 -53 -215 -149 -153 -147 -333 -379 -485
-627 -74 -121 -247 -437 -302 -555 -21 -44 -48 -101 -61 -126 -64 -126 -206
-480 -336 -837 -93 -257 -263 -988 -299 -1290 -46 -374 -62 -611 -76 -1063 -5
-171 -4 -228 5 -234 7 -4 15 -5 18 -1 7 7 60 485 68 621 20 344 39 497 106
830 164 824 369 1397 763 2140 136 255 338 570 513 798 70 90 231 260 287 302
36 28 46 30 117 29 73 -1 86 -4 181 -51 133 -64 244 -148 394 -298 234 -233
381 -447 572 -831 191 -386 302 -768 377 -1304 18 -125 40 -212 65 -247 21
-31 52 -29 72 5 58 101 27 433 -82 858 -36 140 -130 430 -172 529 -77 183
-244 499 -355 672 -213 335 -566 669 -823 780 -142 61 -235 75 -332 49z"/>
<path d="M9690 15153 c-105 -36 -223 -149 -327 -313 -317 -498 -482 -1559
-362 -2325 23 -146 36 -175 78 -175 30 0 42 7 183 116 146 112 222 160 380
239 234 118 635 250 940 310 73 14 143 28 156 31 41 8 46 42 47 309 0 205 -3
266 -19 340 -55 271 -132 473 -294 770 -163 300 -402 588 -564 679 -74 41
-139 47 -218 19z m150 -139 c58 -38 221 -220 301 -335 119 -173 180 -276 264
-452 98 -205 167 -407 199 -582 26 -138 37 -488 17 -508 -5 -5 -67 -22 -138
-38 -256 -58 -506 -140 -733 -241 -166 -74 -344 -184 -535 -330 l-90 -69 -7
48 c-38 252 -52 517 -39 742 26 450 105 855 228 1176 96 251 271 497 408 576
57 33 90 36 125 13z"/>
<path d="M14904 11099 c-73 -39 -104 -61 -224 -165 -177 -152 -270 -265 -353
-423 -67 -128 -84 -186 -93 -313 -6 -86 -4 -98 10 -98 17 0 22 15 31 104 9 76
55 198 106 276 43 67 304 334 409 420 143 116 210 182 210 206 0 33 -24 31
-96 -7z"/>
<path d="M11793 8096 c-55 -18 -130 -74 -193 -144 -70 -78 -79 -143 -24 -179
40 -26 91 -5 137 56 58 79 66 80 123 13 152 -177 353 -362 484 -446 121 -78
377 -197 564 -263 253 -89 309 -105 475 -138 471 -93 863 -107 1201 -44 103
20 310 94 310 111 0 7 -61 2 -93 -8 -10 -3 -33 -7 -50 -9 -77 -7 -156 -17
-212 -26 -242 -38 -756 -9 -1080 61 -55 12 -111 28 -125 35 -14 7 -72 29 -130
48 -153 52 -291 102 -325 120 -16 9 -95 48 -175 86 -194 94 -353 213 -562 422
-87 87 -158 162 -158 168 0 12 85 5 189 -15 132 -25 171 -13 171 53 0 42 -26
61 -106 78 -167 34 -349 43 -421 21z"/>
<path d="M7318 1493 c0 -5 -2 -13 -2 -18 -1 -6 -11 -20 -22 -31 -15 -15 -24
-18 -37 -10 -19 12 -62 -6 -130 -56 -84 -60 -36 -85 55 -29 48 30 58 30 58 -1
0 -11 -14 -25 -37 -35 -50 -24 -54 -59 -5 -57 24 2 32 -2 32 -15 0 -9 3 -27 7
-41 l6 -24 -28 22 c-18 14 -42 22 -66 22 -34 0 -43 -5 -68 -41 -30 -41 -31
-52 -4 -96 43 -74 43 -74 63 -63 24 13 26 39 5 66 -19 25 -20 74 -1 74 8 0 30
-19 49 -42 37 -45 67 -47 67 -6 0 15 9 27 23 33 16 7 21 17 19 34 -4 24 -3 24
22 8 40 -26 108 -22 145 9 45 38 43 83 -8 162 -56 86 -137 163 -143 135z m77
-150 c52 -78 55 -100 19 -113 -32 -13 -61 2 -74 36 -17 43 -12 144 6 144 2 0
24 -30 49 -67z"/>
<path d="M5495 1350 c-57 -12 -148 -47 -187 -73 -37 -25 -49 -65 -23 -79 13
-8 14 -13 4 -24 -16 -20 -5 -67 39 -154 35 -71 39 -75 72 -77 19 -2 58 -6 86
-9 40 -5 59 -2 90 14 60 30 79 57 79 109 0 51 -28 83 -72 83 -22 0 -20 4 26
49 45 43 51 55 51 90 0 70 -53 93 -165 71z m95 -89 c-14 -27 -48 -52 -108 -80
-41 -19 -52 -30 -52 -47 0 -29 23 -42 94 -50 97 -12 101 -49 9 -90 -32 -14
-66 -30 -76 -36 -23 -11 -19 -17 -47 62 -13 36 -37 86 -52 111 -16 26 -26 54
-22 62 3 9 40 29 82 46 90 34 106 38 150 40 29 1 32 -1 22 -18z"/>
<path d="M5822 1258 c-18 -18 -14 -53 8 -73 30 -28 24 -52 -22 -85 -45 -33
-58 -28 -58 21 0 31 -23 54 -45 45 -13 -4 -15 -16 -10 -58 10 -89 14 -97 42
-104 36 -9 106 28 141 76 l27 38 53 -35 c101 -68 117 -130 47 -192 -45 -39
-93 -51 -171 -44 -35 3 -64 3 -64 0 0 -17 65 -37 120 -37 122 0 173 56 174
190 0 77 -22 110 -150 224 -53 48 -72 54 -92 34z"/>
<path d="M6926 1100 c-23 -22 -46 -37 -49 -34 -3 4 -22 3 -42 0 -29 -6 -42
-17 -65 -52 -15 -25 -31 -40 -35 -35 -3 6 -25 11 -49 11 -35 0 -48 -6 -73 -32
-38 -41 -63 -89 -63 -123 0 -25 39 -75 59 -75 17 0 79 40 85 56 4 11 15 13 46
8 36 -6 40 -5 40 15 0 15 6 21 23 21 12 0 33 7 45 16 28 20 43 10 71 -50 28
-58 27 -92 -4 -112 -24 -16 -65 -14 -165 8 -32 7 -22 -18 19 -46 34 -22 54
-28 99 -29 77 0 116 21 137 76 19 51 9 115 -29 176 l-24 37 44 13 c49 15 84
51 84 87 0 30 -66 104 -91 104 -11 0 -39 -18 -63 -40z m114 -61 c0 -23 -36
-48 -61 -42 -25 7 -24 11 7 57 25 37 28 38 40 21 8 -10 14 -27 14 -36z m-202
-91 c-2 -6 -10 -14 -16 -16 -7 -2 -10 2 -6 12 7 18 28 22 22 4z m-101 -30 c-3
-8 -6 -5 -6 6 -1 11 2 17 5 13 3 -3 4 -12 1 -19z m-63 -34 c7 -18 -21 -64 -40
-64 -14 0 -12 15 9 58 12 26 23 28 31 6z"/>
<path d="M6485 958 c-11 -6 -27 -20 -35 -30 -14 -18 -17 -18 -52 -4 -83 35
-158 13 -193 -55 -11 -19 -23 -29 -39 -29 -32 0 -97 -37 -161 -93 -82 -71 -74
-119 12 -71 l47 26 18 -22 c25 -31 23 -66 -6 -85 -20 -14 -29 -14 -48 -4 -13
6 -27 18 -31 26 -7 11 -12 11 -23 2 -20 -16 -17 -34 9 -65 19 -22 32 -27 68
-27 58 0 85 15 110 64 23 46 20 76 -12 121 -19 26 -19 48 0 48 8 0 32 -52 47
-105 12 -39 37 -42 121 -14 48 16 78 34 113 68 l47 46 32 -33 c55 -56 68 -20
26 70 -14 29 -25 65 -25 79 0 28 24 55 55 61 11 2 20 10 20 18 0 19 -72 25
-100 8z m-99 -121 c33 -28 28 -52 -24 -109 -31 -35 -90 -75 -96 -66 -1 2 -10
22 -21 46 -15 36 -16 48 -6 82 6 21 18 46 27 55 24 23 88 19 120 -8z"/>
<path d="M5859 701 c-14 -20 -34 -61 -44 -90 -9 -29 -20 -50 -23 -46 -4 3 -13
29 -22 58 -12 39 -21 53 -37 55 -11 2 -23 -3 -26 -11 -9 -24 54 -243 78 -271
19 -22 24 -24 29 -10 3 8 6 30 7 47 0 32 17 84 18 59 1 -7 16 -21 34 -32 35
-23 69 -21 133 6 28 12 34 18 25 27 -6 6 -19 12 -29 13 -9 0 -31 1 -49 2 -21
1 -43 13 -62 31 l-30 29 18 54 c11 29 22 68 26 86 9 45 -13 42 -46 -7z"/>
</g>
</svg>
